<svg width="260" height="76" viewBox="0 0 260 76" fill="none" xmlns="http://www.w3.org/2000/svg">
<g filter="url(#filter0_d_223_759)">
<path d="M3.50164 34.1414C3.50164 15.2856 18.7873 0 37.6431 0H222.357C241.213 0 256.498 15.2856 256.498 34.1414C256.498 52.9972 241.213 68.2828 222.357 68.2828H37.6431C18.7873 68.2828 3.50164 52.9972 3.50164 34.1414Z" fill="white"/>
<path d="M37.6427 1.31319H222.357C240.487 1.31319 255.185 16.0106 255.186 34.141C255.186 52.2716 240.487 66.9698 222.357 66.9698H37.6427C19.5123 66.9696 4.81483 52.2714 4.81483 34.141C4.81505 16.0108 19.5124 1.31341 37.6427 1.31319Z" stroke="#487F50" stroke-width="2.61707"/>
</g>
<defs>
<filter id="filter0_d_223_759" x="-4.52194e-05" y="0" width="260" height="75.2861" filterUnits="userSpaceOnUse" color-interpolation-filters="sRGB">
<feFlood flood-opacity="0" result="BackgroundImageFix"/>
<feColorMatrix in="SourceAlpha" type="matrix" values="0 0 0 0 0 0 0 0 0 0 0 0 0 0 0 0 0 0 127 0" result="hardAlpha"/>
<feOffset dy="3.48942"/>
<feGaussianBlur stdDeviation="1.74471"/>
<feComposite in2="hardAlpha" operator="out"/>
<feColorMatrix type="matrix" values="0 0 0 0 0 0 0 0 0 0 0 0 0 0 0 0 0 0 0.25 0"/>
<feBlend mode="normal" in2="BackgroundImageFix" result="effect1_dropShadow_223_759"/>
<feBlend mode="normal" in="SourceGraphic" in2="effect1_dropShadow_223_759" result="shape"/>
</filter>
</defs>
</svg>
