<svg width="236" height="69" viewBox="0 0 236 69" fill="none" xmlns="http://www.w3.org/2000/svg">
<g filter="url(#filter0_d_223_720)">
<path d="M3.1785 30.9899C3.1785 13.8746 17.0531 0 34.1684 0H201.832C218.947 0 232.822 13.8746 232.822 30.9899C232.822 48.1051 218.947 61.9798 201.832 61.9798H34.1684C17.0531 61.9798 3.1785 48.1051 3.1785 30.9899Z" fill="white"/>
<path d="M34.168 1.19175H201.831C218.288 1.19175 231.63 14.5327 231.63 30.9895C231.63 47.4464 218.288 60.7882 201.831 60.7882H34.168C17.7112 60.788 4.37025 47.4463 4.37025 30.9895C4.37047 14.5328 17.7113 1.19198 34.168 1.19175Z" stroke="#487F50" stroke-width="2.37924"/>
</g>
<defs>
<filter id="filter0_d_223_720" x="4.51482e-05" y="0" width="236" height="68.3367" filterUnits="userSpaceOnUse" color-interpolation-filters="sRGB">
<feFlood flood-opacity="0" result="BackgroundImageFix"/>
<feColorMatrix in="SourceAlpha" type="matrix" values="0 0 0 0 0 0 0 0 0 0 0 0 0 0 0 0 0 0 127 0" result="hardAlpha"/>
<feOffset dy="3.17232"/>
<feGaussianBlur stdDeviation="1.58616"/>
<feComposite in2="hardAlpha" operator="out"/>
<feColorMatrix type="matrix" values="0 0 0 0 0 0 0 0 0 0 0 0 0 0 0 0 0 0 0.25 0"/>
<feBlend mode="normal" in2="BackgroundImageFix" result="effect1_dropShadow_223_720"/>
<feBlend mode="normal" in="SourceGraphic" in2="effect1_dropShadow_223_720" result="shape"/>
</filter>
</defs>
</svg>
